# xmcd CD database file
#
# Track frame offsets:
#	150
#	22524
#	96911
#	122712
#	162690
#	182976
#	205145
#	237913
#
# Disc length: 3728 seconds
#
# Revision: 0
# Processed by: cddbd v1.5.1PL2 Copyright (c) Steve Scherf et al.
# Submitted via: CDex 1.51
#
DISCID=650e8e08
DTITLE=Roy Hargrove and The RH Factor - Live In Salzua  At Jazz Baltica (6-28-03) [Bootleg]
DYEAR=2003
DGENRE=Jazz
TTITLE0=Hardgrove
TTITLE1=Pastor "T"
TTITLE2=The Joint
TTITLE3=Forget Regret
TTITLE4=How I Know
TTITLE5=Juice
TTITLE6=Ill Stay
TTITLE7=Liquid Streets
EXTD=YEAR: 2003
EXTT0=
EXTT1=
EXTT2=
EXTT3=
EXTT4=
EXTT5=
EXTT6=
EXTT7=
PLAYORDER=
